<svg width="20" height="20" viewBox="0 0 20 20" fill="none" xmlns="http://www.w3.org/2000/svg">
<path d="M1.50938 16.6062L4.70313 16.5219C4.86275 16.518 5.01482 16.4531 5.12813 16.3406L15.5844 5.89999C16.113 5.36985 16.4098 4.65176 16.4098 3.90312C16.4098 3.15448 16.113 2.43638 15.5844 1.90624V1.90624C15.0542 1.37764 14.3361 1.08081 13.5875 1.08081C12.8389 1.08081 12.1208 1.37764 11.5906 1.90624L1.15001 12.3469C1.03752 12.4602 0.972669 12.6123 0.968756 12.7719L0.884381 15.9656C0.882296 16.049 0.896921 16.132 0.927396 16.2096C0.95787 16.2872 1.00358 16.358 1.06182 16.4177C1.12007 16.4774 1.18967 16.5248 1.26654 16.5572C1.3434 16.5896 1.42597 16.6063 1.50938 16.6062V16.6062ZM12.475 2.79062C13.9813 1.36249 16.1281 3.51249 14.7 5.01562L13.75 5.97499L11.5156 3.74999L12.475 2.79062ZM2.20938 13.0562L10.625 4.63437L12.8563 6.87499L4.43751 15.2812L2.15313 15.3375L2.20938 13.0562Z" fill="#383838"/>
<path d="M18.75 17.6687H1.25C1.08424 17.6687 0.925268 17.7346 0.808058 17.8518C0.690848 17.969 0.625 18.128 0.625 18.2937C0.625 18.4595 0.690848 18.6185 0.808058 18.7357C0.925268 18.8529 1.08424 18.9187 1.25 18.9187H18.75C18.9158 18.9187 19.0747 18.8529 19.1919 18.7357C19.3092 18.6185 19.375 18.4595 19.375 18.2937C19.375 18.128 19.3092 17.969 19.1919 17.8518C19.0747 17.7346 18.9158 17.6687 18.75 17.6687Z" fill="#383838"/>
</svg>
